<mxfile host="app.diagrams.net" modified="2021-03-02T18:15:00.346Z" agent="5.0 (Windows NT 10.0; Win64; x64) AppleWebKit/537.36 (KHTML, like Gecko) Chrome/88.0.4324.190 Safari/537.36" etag="dmU58OixsJCdbNoEvzHo" version="14.2.4" type="github">
  <diagram id="VG4UXJ_e9jjO9WvTHH_s" name="Page-1">
    <mxGraphModel dx="3479" dy="2150" grid="1" gridSize="10" guides="1" tooltips="1" connect="1" arrows="1" fold="1" page="1" pageScale="1" pageWidth="827" pageHeight="1169" math="0" shadow="1">
      <root>
        <mxCell id="0" />
        <mxCell id="1" parent="0" />
        <mxCell id="4Af5Qpp93MwCPUMn6GHV-3" style="edgeStyle=orthogonalEdgeStyle;rounded=0;orthogonalLoop=1;jettySize=auto;html=1;exitX=0.5;exitY=1;exitDx=0;exitDy=0;entryX=0.5;entryY=0;entryDx=0;entryDy=0;" parent="1" target="4Af5Qpp93MwCPUMn6GHV-2" edge="1">
          <mxGeometry relative="1" as="geometry">
            <mxPoint x="-767.5" y="30" as="sourcePoint" />
          </mxGeometry>
        </mxCell>
        <mxCell id="4Af5Qpp93MwCPUMn6GHV-1" value="Start" style="rounded=1;whiteSpace=wrap;html=1;" parent="1" vertex="1">
          <mxGeometry x="-827" y="-10" width="120" height="40" as="geometry" />
        </mxCell>
        <mxCell id="4Af5Qpp93MwCPUMn6GHV-6" style="edgeStyle=orthogonalEdgeStyle;rounded=0;orthogonalLoop=1;jettySize=auto;html=1;exitX=0.5;exitY=1;exitDx=0;exitDy=0;entryX=0.5;entryY=0;entryDx=0;entryDy=0;" parent="1" source="4Af5Qpp93MwCPUMn6GHV-2" target="4Af5Qpp93MwCPUMn6GHV-5" edge="1">
          <mxGeometry relative="1" as="geometry" />
        </mxCell>
        <mxCell id="4Af5Qpp93MwCPUMn6GHV-2" value="Program Loads" style="rounded=1;whiteSpace=wrap;html=1;" parent="1" vertex="1">
          <mxGeometry x="-827.5" y="60" width="120" height="40" as="geometry" />
        </mxCell>
        <mxCell id="4Af5Qpp93MwCPUMn6GHV-8" style="edgeStyle=orthogonalEdgeStyle;rounded=0;orthogonalLoop=1;jettySize=auto;html=1;exitX=0.5;exitY=1;exitDx=0;exitDy=0;" parent="1" source="4Af5Qpp93MwCPUMn6GHV-5" target="4Af5Qpp93MwCPUMn6GHV-7" edge="1">
          <mxGeometry relative="1" as="geometry" />
        </mxCell>
        <mxCell id="4Af5Qpp93MwCPUMn6GHV-5" value="Establishes a connection to the sql databases" style="rounded=1;whiteSpace=wrap;html=1;" parent="1" vertex="1">
          <mxGeometry x="-827.5" y="130" width="120" height="40" as="geometry" />
        </mxCell>
        <mxCell id="4Af5Qpp93MwCPUMn6GHV-11" style="edgeStyle=orthogonalEdgeStyle;rounded=0;orthogonalLoop=1;jettySize=auto;html=1;" parent="1" source="4Af5Qpp93MwCPUMn6GHV-7" target="4Af5Qpp93MwCPUMn6GHV-10" edge="1">
          <mxGeometry relative="1" as="geometry" />
        </mxCell>
        <mxCell id="4Af5Qpp93MwCPUMn6GHV-80" style="edgeStyle=orthogonalEdgeStyle;rounded=0;orthogonalLoop=1;jettySize=auto;html=1;exitX=0.5;exitY=1;exitDx=0;exitDy=0;entryX=0;entryY=0.5;entryDx=0;entryDy=0;" parent="1" source="4Af5Qpp93MwCPUMn6GHV-7" target="4Af5Qpp93MwCPUMn6GHV-15" edge="1">
          <mxGeometry relative="1" as="geometry">
            <Array as="points">
              <mxPoint x="-767" y="360" />
              <mxPoint x="-400" y="360" />
              <mxPoint x="-400" y="345" />
            </Array>
          </mxGeometry>
        </mxCell>
        <mxCell id="4Af5Qpp93MwCPUMn6GHV-7" value="Do the database exist&amp;nbsp;" style="rhombus;whiteSpace=wrap;html=1;" parent="1" vertex="1">
          <mxGeometry x="-840" y="230" width="145" height="110" as="geometry" />
        </mxCell>
        <mxCell id="4Af5Qpp93MwCPUMn6GHV-14" style="edgeStyle=orthogonalEdgeStyle;rounded=0;orthogonalLoop=1;jettySize=auto;html=1;exitX=1;exitY=0.5;exitDx=0;exitDy=0;entryX=0;entryY=0.5;entryDx=0;entryDy=0;" parent="1" source="4Af5Qpp93MwCPUMn6GHV-10" target="4Af5Qpp93MwCPUMn6GHV-13" edge="1">
          <mxGeometry relative="1" as="geometry" />
        </mxCell>
        <mxCell id="4Af5Qpp93MwCPUMn6GHV-10" value="Creates the databaes with the corect collums and fields" style="rounded=1;whiteSpace=wrap;html=1;" parent="1" vertex="1">
          <mxGeometry x="-627.5" y="255" width="120" height="60" as="geometry" />
        </mxCell>
        <mxCell id="4Af5Qpp93MwCPUMn6GHV-12" value="No" style="text;html=1;align=center;verticalAlign=middle;resizable=0;points=[];autosize=1;" parent="1" vertex="1">
          <mxGeometry x="-695" y="270" width="30" height="20" as="geometry" />
        </mxCell>
        <mxCell id="4Af5Qpp93MwCPUMn6GHV-81" style="edgeStyle=orthogonalEdgeStyle;rounded=0;orthogonalLoop=1;jettySize=auto;html=1;exitX=0.5;exitY=1;exitDx=0;exitDy=0;" parent="1" source="4Af5Qpp93MwCPUMn6GHV-13" target="4Af5Qpp93MwCPUMn6GHV-15" edge="1">
          <mxGeometry relative="1" as="geometry" />
        </mxCell>
        <mxCell id="4Af5Qpp93MwCPUMn6GHV-13" value="Populates the databases with the correct data for them" style="rounded=1;whiteSpace=wrap;html=1;" parent="1" vertex="1">
          <mxGeometry x="-457.5" y="255" width="120" height="60" as="geometry" />
        </mxCell>
        <mxCell id="4Af5Qpp93MwCPUMn6GHV-83" style="edgeStyle=orthogonalEdgeStyle;rounded=0;orthogonalLoop=1;jettySize=auto;html=1;exitX=0.5;exitY=0;exitDx=0;exitDy=0;entryX=0;entryY=0.5;entryDx=0;entryDy=0;" parent="1" source="4Af5Qpp93MwCPUMn6GHV-15" target="4Af5Qpp93MwCPUMn6GHV-24" edge="1">
          <mxGeometry relative="1" as="geometry" />
        </mxCell>
        <mxCell id="4Af5Qpp93MwCPUMn6GHV-85" style="edgeStyle=orthogonalEdgeStyle;rounded=0;orthogonalLoop=1;jettySize=auto;html=1;exitX=1;exitY=0.5;exitDx=0;exitDy=0;entryX=0;entryY=0.5;entryDx=0;entryDy=0;" parent="1" source="4Af5Qpp93MwCPUMn6GHV-15" target="4Af5Qpp93MwCPUMn6GHV-19" edge="1">
          <mxGeometry relative="1" as="geometry" />
        </mxCell>
        <mxCell id="4Af5Qpp93MwCPUMn6GHV-136" style="edgeStyle=orthogonalEdgeStyle;rounded=0;orthogonalLoop=1;jettySize=auto;html=1;exitX=0.5;exitY=0;exitDx=0;exitDy=0;entryX=0;entryY=0.5;entryDx=0;entryDy=0;" parent="1" source="4Af5Qpp93MwCPUMn6GHV-15" target="4Af5Qpp93MwCPUMn6GHV-135" edge="1">
          <mxGeometry relative="1" as="geometry" />
        </mxCell>
        <mxCell id="4Af5Qpp93MwCPUMn6GHV-15" value="Main Page of program is displayed&amp;nbsp;" style="rounded=1;whiteSpace=wrap;html=1;" parent="1" vertex="1">
          <mxGeometry x="-315" y="315" width="120" height="60" as="geometry" />
        </mxCell>
        <mxCell id="4Af5Qpp93MwCPUMn6GHV-86" style="edgeStyle=orthogonalEdgeStyle;rounded=0;orthogonalLoop=1;jettySize=auto;html=1;exitX=1;exitY=0.5;exitDx=0;exitDy=0;entryX=0;entryY=0.5;entryDx=0;entryDy=0;" parent="1" source="4Af5Qpp93MwCPUMn6GHV-19" target="4Af5Qpp93MwCPUMn6GHV-26" edge="1">
          <mxGeometry relative="1" as="geometry" />
        </mxCell>
        <mxCell id="4Af5Qpp93MwCPUMn6GHV-19" value="User Opens up log in page" style="rounded=1;whiteSpace=wrap;html=1;" parent="1" vertex="1">
          <mxGeometry x="-95" y="315" width="120" height="60" as="geometry" />
        </mxCell>
        <mxCell id="4Af5Qpp93MwCPUMn6GHV-134" style="edgeStyle=orthogonalEdgeStyle;rounded=0;orthogonalLoop=1;jettySize=auto;html=1;exitX=1;exitY=0.5;exitDx=0;exitDy=0;entryX=0;entryY=0.5;entryDx=0;entryDy=0;" parent="1" source="4Af5Qpp93MwCPUMn6GHV-24" target="4Af5Qpp93MwCPUMn6GHV-54" edge="1">
          <mxGeometry relative="1" as="geometry" />
        </mxCell>
        <mxCell id="4Af5Qpp93MwCPUMn6GHV-24" value="User quits program" style="rounded=1;whiteSpace=wrap;html=1;" parent="1" vertex="1">
          <mxGeometry x="-225" y="195" width="120" height="60" as="geometry" />
        </mxCell>
        <mxCell id="4Af5Qpp93MwCPUMn6GHV-87" style="edgeStyle=orthogonalEdgeStyle;rounded=0;orthogonalLoop=1;jettySize=auto;html=1;exitX=1;exitY=0.5;exitDx=0;exitDy=0;entryX=0;entryY=0.5;entryDx=0;entryDy=0;" parent="1" source="4Af5Qpp93MwCPUMn6GHV-26" target="4Af5Qpp93MwCPUMn6GHV-27" edge="1">
          <mxGeometry relative="1" as="geometry" />
        </mxCell>
        <mxCell id="4Af5Qpp93MwCPUMn6GHV-26" value="User enters in details into entry boxes" style="rounded=1;whiteSpace=wrap;html=1;" parent="1" vertex="1">
          <mxGeometry x="50" y="315" width="120" height="60" as="geometry" />
        </mxCell>
        <mxCell id="4Af5Qpp93MwCPUMn6GHV-88" style="edgeStyle=orthogonalEdgeStyle;rounded=0;orthogonalLoop=1;jettySize=auto;html=1;exitX=1;exitY=0.5;exitDx=0;exitDy=0;entryX=0;entryY=0.5;entryDx=0;entryDy=0;" parent="1" source="4Af5Qpp93MwCPUMn6GHV-27" target="4Af5Qpp93MwCPUMn6GHV-28" edge="1">
          <mxGeometry relative="1" as="geometry" />
        </mxCell>
        <mxCell id="4Af5Qpp93MwCPUMn6GHV-27" value="Terms &amp;amp; Service lable is clicked displaying&lt;br&gt;the pdf" style="rounded=1;whiteSpace=wrap;html=1;" parent="1" vertex="1">
          <mxGeometry x="190" y="315" width="120" height="60" as="geometry" />
        </mxCell>
        <mxCell id="4Af5Qpp93MwCPUMn6GHV-90" style="edgeStyle=orthogonalEdgeStyle;rounded=0;orthogonalLoop=1;jettySize=auto;html=1;exitX=1;exitY=0.5;exitDx=0;exitDy=0;entryX=0;entryY=0.5;entryDx=0;entryDy=0;" parent="1" source="4Af5Qpp93MwCPUMn6GHV-28" target="4Af5Qpp93MwCPUMn6GHV-29" edge="1">
          <mxGeometry relative="1" as="geometry" />
        </mxCell>
        <mxCell id="4Af5Qpp93MwCPUMn6GHV-28" value="Checked box is clicked displaying log in button&lt;span style=&quot;color: rgba(0 , 0 , 0 , 0) ; font-family: monospace ; font-size: 0px&quot;&gt;%3CmxGraphModel%3E%3Croot%3E%3CmxCell%20id%3D%220%22%2F%3E%3CmxCell%20id%3D%221%22%20parent%3D%220%22%2F%3E%3CmxCell%20id%3D%222%22%20value%3D%22Terms%20%26amp%3Bamp%3B%20Service%20lable%20is%20clicked%20displaying%26lt%3Bbr%26gt%3Bthe%20pdf%22%20style%3D%22rounded%3D1%3BwhiteSpace%3Dwrap%3Bhtml%3D1%3B%22%20vertex%3D%221%22%20parent%3D%221%22%3E%3CmxGeometry%20x%3D%22170%22%20y%3D%22710%22%20width%3D%22120%22%20height%3D%2260%22%20as%3D%22geometry%22%2F%3E%3C%2FmxCell%3E%3C%2Froot%3E%3C%2FmxGraphModel%3E&lt;/span&gt;" style="rounded=1;whiteSpace=wrap;html=1;" parent="1" vertex="1">
          <mxGeometry x="330" y="315" width="120" height="60" as="geometry" />
        </mxCell>
        <mxCell id="4Af5Qpp93MwCPUMn6GHV-91" style="edgeStyle=orthogonalEdgeStyle;rounded=0;orthogonalLoop=1;jettySize=auto;html=1;exitX=1;exitY=0.5;exitDx=0;exitDy=0;" parent="1" source="4Af5Qpp93MwCPUMn6GHV-29" target="4Af5Qpp93MwCPUMn6GHV-35" edge="1">
          <mxGeometry relative="1" as="geometry" />
        </mxCell>
        <mxCell id="4Af5Qpp93MwCPUMn6GHV-29" value="Checked box is clicked displaying log in button&lt;span style=&quot;color: rgba(0 , 0 , 0 , 0) ; font-family: monospace ; font-size: 0px&quot;&gt;%3CmxGraphModel%3E%3Croot%3E%3CmxCell%20id%3D%220%22%2F%3E%3CmxCell%20id%3D%221%22%20parent%3D%220%22%2F%3E%3CmxCell%20id%3D%222%22%20value%3D%22Terms%20%26amp%3Bamp%3B%20Service%20lable%20is%20clicked%20displaying%26lt%3Bbr%26gt%3Bthe%20pdf%22%20style%3D%22rounded%3D1%3BwhiteSpace%3Dwrap%3Bhtml%3D1%3B%22%20vertex%3D%221%22%20parent%3D%221%22%3E%3CmxGeometry%20x%3D%22170%22%20y%3D%22710%22%20width%3D%22120%22%20height%3D%2260%22%20as%3D%22geometry%22%2F%3E%3C%2FmxCell%3E%3C%2Froot%3E%3C%2FmxGraphModel%3E&lt;/span&gt;" style="rounded=1;whiteSpace=wrap;html=1;" parent="1" vertex="1">
          <mxGeometry x="470" y="315" width="120" height="60" as="geometry" />
        </mxCell>
        <mxCell id="4Af5Qpp93MwCPUMn6GHV-44" style="edgeStyle=orthogonalEdgeStyle;rounded=0;orthogonalLoop=1;jettySize=auto;html=1;exitX=0;exitY=0.5;exitDx=0;exitDy=0;entryX=0.5;entryY=1;entryDx=0;entryDy=0;" parent="1" source="4Af5Qpp93MwCPUMn6GHV-35" target="4Af5Qpp93MwCPUMn6GHV-37" edge="1">
          <mxGeometry relative="1" as="geometry" />
        </mxCell>
        <mxCell id="4Af5Qpp93MwCPUMn6GHV-47" style="edgeStyle=orthogonalEdgeStyle;rounded=0;orthogonalLoop=1;jettySize=auto;html=1;exitX=1;exitY=0.5;exitDx=0;exitDy=0;entryX=0;entryY=0.5;entryDx=0;entryDy=0;" parent="1" source="4Af5Qpp93MwCPUMn6GHV-35" target="4Af5Qpp93MwCPUMn6GHV-46" edge="1">
          <mxGeometry relative="1" as="geometry" />
        </mxCell>
        <mxCell id="4Af5Qpp93MwCPUMn6GHV-35" value="Do the detials provided comtain any sql characters&lt;br&gt;Or&lt;br&gt;User detials are not found within the user database&amp;nbsp;" style="rhombus;whiteSpace=wrap;html=1;" parent="1" vertex="1">
          <mxGeometry x="-10" y="650" width="180" height="160" as="geometry" />
        </mxCell>
        <mxCell id="4Af5Qpp93MwCPUMn6GHV-40" style="edgeStyle=orthogonalEdgeStyle;rounded=0;orthogonalLoop=1;jettySize=auto;html=1;exitX=0.5;exitY=0;exitDx=0;exitDy=0;entryX=0.5;entryY=1;entryDx=0;entryDy=0;" parent="1" source="4Af5Qpp93MwCPUMn6GHV-37" target="4Af5Qpp93MwCPUMn6GHV-39" edge="1">
          <mxGeometry relative="1" as="geometry" />
        </mxCell>
        <mxCell id="4Af5Qpp93MwCPUMn6GHV-37" value="Error message is displayed to User" style="rounded=1;whiteSpace=wrap;html=1;" parent="1" vertex="1">
          <mxGeometry x="-150" y="590" width="120" height="60" as="geometry" />
        </mxCell>
        <mxCell id="4Af5Qpp93MwCPUMn6GHV-98" style="edgeStyle=orthogonalEdgeStyle;rounded=0;orthogonalLoop=1;jettySize=auto;html=1;exitX=0;exitY=0.5;exitDx=0;exitDy=0;entryX=0.5;entryY=1;entryDx=0;entryDy=0;" parent="1" source="4Af5Qpp93MwCPUMn6GHV-39" target="4Af5Qpp93MwCPUMn6GHV-15" edge="1">
          <mxGeometry relative="1" as="geometry" />
        </mxCell>
        <mxCell id="4Af5Qpp93MwCPUMn6GHV-39" value="Log in page removed" style="rounded=1;whiteSpace=wrap;html=1;" parent="1" vertex="1">
          <mxGeometry x="-150" y="420" width="120" height="60" as="geometry" />
        </mxCell>
        <mxCell id="4Af5Qpp93MwCPUMn6GHV-43" value="Yes" style="text;html=1;align=center;verticalAlign=middle;resizable=0;points=[];autosize=1;" parent="1" vertex="1">
          <mxGeometry x="-90" y="710" width="40" height="20" as="geometry" />
        </mxCell>
        <mxCell id="4Af5Qpp93MwCPUMn6GHV-49" style="edgeStyle=orthogonalEdgeStyle;rounded=0;orthogonalLoop=1;jettySize=auto;html=1;exitX=0.5;exitY=1;exitDx=0;exitDy=0;entryX=0.5;entryY=0;entryDx=0;entryDy=0;" parent="1" source="4Af5Qpp93MwCPUMn6GHV-46" target="4Af5Qpp93MwCPUMn6GHV-48" edge="1">
          <mxGeometry relative="1" as="geometry" />
        </mxCell>
        <mxCell id="4Af5Qpp93MwCPUMn6GHV-46" value="Log in page closes and menu is updated&amp;nbsp;" style="rounded=1;whiteSpace=wrap;html=1;" parent="1" vertex="1">
          <mxGeometry x="300" y="700" width="120" height="60" as="geometry" />
        </mxCell>
        <mxCell id="4Af5Qpp93MwCPUMn6GHV-52" style="edgeStyle=orthogonalEdgeStyle;rounded=0;orthogonalLoop=1;jettySize=auto;html=1;exitX=0.5;exitY=1;exitDx=0;exitDy=0;" parent="1" source="4Af5Qpp93MwCPUMn6GHV-48" target="4Af5Qpp93MwCPUMn6GHV-50" edge="1">
          <mxGeometry relative="1" as="geometry" />
        </mxCell>
        <mxCell id="4Af5Qpp93MwCPUMn6GHV-48" value="User clicks on PIM system and PIM system is displayed" style="rounded=1;whiteSpace=wrap;html=1;" parent="1" vertex="1">
          <mxGeometry x="300" y="800" width="120" height="60" as="geometry" />
        </mxCell>
        <mxCell id="4Af5Qpp93MwCPUMn6GHV-99" style="edgeStyle=orthogonalEdgeStyle;rounded=0;orthogonalLoop=1;jettySize=auto;html=1;exitX=0;exitY=0.5;exitDx=0;exitDy=0;" parent="1" source="4Af5Qpp93MwCPUMn6GHV-50" target="4Af5Qpp93MwCPUMn6GHV-53" edge="1">
          <mxGeometry relative="1" as="geometry" />
        </mxCell>
        <mxCell id="4Af5Qpp93MwCPUMn6GHV-102" style="edgeStyle=orthogonalEdgeStyle;rounded=0;orthogonalLoop=1;jettySize=auto;html=1;exitX=0.5;exitY=1;exitDx=0;exitDy=0;entryX=0.5;entryY=0;entryDx=0;entryDy=0;" parent="1" source="4Af5Qpp93MwCPUMn6GHV-50" target="4Af5Qpp93MwCPUMn6GHV-101" edge="1">
          <mxGeometry relative="1" as="geometry" />
        </mxCell>
        <mxCell id="4Af5Qpp93MwCPUMn6GHV-119" style="edgeStyle=orthogonalEdgeStyle;rounded=0;orthogonalLoop=1;jettySize=auto;html=1;exitX=1;exitY=0.5;exitDx=0;exitDy=0;" parent="1" source="4Af5Qpp93MwCPUMn6GHV-50" target="4Af5Qpp93MwCPUMn6GHV-118" edge="1">
          <mxGeometry relative="1" as="geometry" />
        </mxCell>
        <mxCell id="4Af5Qpp93MwCPUMn6GHV-50" value="TreeView is created and gathers all information from the accounts database" style="rounded=1;whiteSpace=wrap;html=1;" parent="1" vertex="1">
          <mxGeometry x="300" y="890" width="120" height="60" as="geometry" />
        </mxCell>
        <mxCell id="4Af5Qpp93MwCPUMn6GHV-51" value="No" style="text;html=1;align=center;verticalAlign=middle;resizable=0;points=[];autosize=1;" parent="1" vertex="1">
          <mxGeometry x="245" y="710" width="30" height="20" as="geometry" />
        </mxCell>
        <mxCell id="4Af5Qpp93MwCPUMn6GHV-58" style="edgeStyle=orthogonalEdgeStyle;rounded=0;orthogonalLoop=1;jettySize=auto;html=1;exitX=0.5;exitY=1;exitDx=0;exitDy=0;" parent="1" source="4Af5Qpp93MwCPUMn6GHV-53" target="4Af5Qpp93MwCPUMn6GHV-57" edge="1">
          <mxGeometry relative="1" as="geometry" />
        </mxCell>
        <mxCell id="4Af5Qpp93MwCPUMn6GHV-53" value="User enters a id to search for and clicks the search button" style="rounded=1;whiteSpace=wrap;html=1;" parent="1" vertex="1">
          <mxGeometry x="-45" y="960" width="120" height="60" as="geometry" />
        </mxCell>
        <mxCell id="4Af5Qpp93MwCPUMn6GHV-54" value="Program Terminates" style="rounded=1;whiteSpace=wrap;html=1;" parent="1" vertex="1">
          <mxGeometry x="-85" y="195" width="120" height="60" as="geometry" />
        </mxCell>
        <mxCell id="4Af5Qpp93MwCPUMn6GHV-61" style="edgeStyle=orthogonalEdgeStyle;rounded=0;orthogonalLoop=1;jettySize=auto;html=1;exitX=0;exitY=0.5;exitDx=0;exitDy=0;entryX=0.5;entryY=1;entryDx=0;entryDy=0;" parent="1" source="4Af5Qpp93MwCPUMn6GHV-57" target="4Af5Qpp93MwCPUMn6GHV-59" edge="1">
          <mxGeometry relative="1" as="geometry" />
        </mxCell>
        <mxCell id="4Af5Qpp93MwCPUMn6GHV-71" style="edgeStyle=orthogonalEdgeStyle;rounded=0;orthogonalLoop=1;jettySize=auto;html=1;exitX=0.5;exitY=1;exitDx=0;exitDy=0;" parent="1" source="4Af5Qpp93MwCPUMn6GHV-57" target="4Af5Qpp93MwCPUMn6GHV-66" edge="1">
          <mxGeometry relative="1" as="geometry">
            <Array as="points">
              <mxPoint x="-35" y="1191" />
              <mxPoint x="-35" y="1151" />
              <mxPoint x="-125" y="1151" />
            </Array>
          </mxGeometry>
        </mxCell>
        <mxCell id="4Af5Qpp93MwCPUMn6GHV-57" value="Are there any sql Quire characters?" style="rhombus;whiteSpace=wrap;html=1;" parent="1" vertex="1">
          <mxGeometry x="-55" y="1061" width="140" height="130" as="geometry" />
        </mxCell>
        <mxCell id="4Af5Qpp93MwCPUMn6GHV-59" value="Display Error message to user" style="rounded=1;whiteSpace=wrap;html=1;" parent="1" vertex="1">
          <mxGeometry x="-245" y="1031" width="120" height="60" as="geometry" />
        </mxCell>
        <mxCell id="4Af5Qpp93MwCPUMn6GHV-62" value="Yes" style="text;html=1;align=center;verticalAlign=middle;resizable=0;points=[];autosize=1;" parent="1" vertex="1">
          <mxGeometry x="-125" y="1111" width="40" height="20" as="geometry" />
        </mxCell>
        <mxCell id="4Af5Qpp93MwCPUMn6GHV-70" style="edgeStyle=orthogonalEdgeStyle;rounded=0;orthogonalLoop=1;jettySize=auto;html=1;exitX=0;exitY=0.5;exitDx=0;exitDy=0;entryX=0.5;entryY=1;entryDx=0;entryDy=0;" parent="1" source="4Af5Qpp93MwCPUMn6GHV-66" target="4Af5Qpp93MwCPUMn6GHV-59" edge="1">
          <mxGeometry relative="1" as="geometry">
            <Array as="points">
              <mxPoint x="-215" y="1236" />
              <mxPoint x="-215" y="1121" />
              <mxPoint x="-185" y="1121" />
            </Array>
          </mxGeometry>
        </mxCell>
        <mxCell id="4Af5Qpp93MwCPUMn6GHV-100" style="edgeStyle=orthogonalEdgeStyle;rounded=0;orthogonalLoop=1;jettySize=auto;html=1;exitX=0.5;exitY=1;exitDx=0;exitDy=0;entryX=0.5;entryY=0;entryDx=0;entryDy=0;" parent="1" source="4Af5Qpp93MwCPUMn6GHV-66" target="4Af5Qpp93MwCPUMn6GHV-74" edge="1">
          <mxGeometry relative="1" as="geometry" />
        </mxCell>
        <mxCell id="4Af5Qpp93MwCPUMn6GHV-66" value="Is the id in the database" style="rhombus;whiteSpace=wrap;html=1;" parent="1" vertex="1">
          <mxGeometry x="-195" y="1171" width="140" height="130" as="geometry" />
        </mxCell>
        <mxCell id="4Af5Qpp93MwCPUMn6GHV-72" value="No" style="text;html=1;align=center;verticalAlign=middle;resizable=0;points=[];autosize=1;" parent="1" vertex="1">
          <mxGeometry x="-85" y="1131" width="30" height="20" as="geometry" />
        </mxCell>
        <mxCell id="4Af5Qpp93MwCPUMn6GHV-73" value="No" style="text;html=1;align=center;verticalAlign=middle;resizable=0;points=[];autosize=1;" parent="1" vertex="1">
          <mxGeometry x="-215" y="1171" width="30" height="20" as="geometry" />
        </mxCell>
        <mxCell id="4Af5Qpp93MwCPUMn6GHV-74" value="Gather al information with that id and display it in the search area" style="rounded=1;whiteSpace=wrap;html=1;" parent="1" vertex="1">
          <mxGeometry x="-185" y="1350" width="120" height="60" as="geometry" />
        </mxCell>
        <mxCell id="4Af5Qpp93MwCPUMn6GHV-76" value="Yes" style="text;html=1;align=center;verticalAlign=middle;resizable=0;points=[];autosize=1;" parent="1" vertex="1">
          <mxGeometry x="-135" y="1310" width="40" height="20" as="geometry" />
        </mxCell>
        <mxCell id="4Af5Qpp93MwCPUMn6GHV-82" value="Yes" style="text;html=1;align=center;verticalAlign=middle;resizable=0;points=[];autosize=1;" parent="1" vertex="1">
          <mxGeometry x="-760" y="340" width="40" height="20" as="geometry" />
        </mxCell>
        <mxCell id="4Af5Qpp93MwCPUMn6GHV-104" style="edgeStyle=orthogonalEdgeStyle;rounded=0;orthogonalLoop=1;jettySize=auto;html=1;exitX=0.5;exitY=1;exitDx=0;exitDy=0;entryX=0.5;entryY=0;entryDx=0;entryDy=0;" parent="1" source="4Af5Qpp93MwCPUMn6GHV-101" target="4Af5Qpp93MwCPUMn6GHV-103" edge="1">
          <mxGeometry relative="1" as="geometry" />
        </mxCell>
        <mxCell id="4Af5Qpp93MwCPUMn6GHV-101" value="User Clicks on add button, Add new user screen is displayed" style="rounded=1;whiteSpace=wrap;html=1;" parent="1" vertex="1">
          <mxGeometry x="300" y="990" width="120" height="60" as="geometry" />
        </mxCell>
        <mxCell id="4Af5Qpp93MwCPUMn6GHV-106" style="edgeStyle=orthogonalEdgeStyle;rounded=0;orthogonalLoop=1;jettySize=auto;html=1;exitX=0.5;exitY=1;exitDx=0;exitDy=0;" parent="1" source="4Af5Qpp93MwCPUMn6GHV-103" target="4Af5Qpp93MwCPUMn6GHV-105" edge="1">
          <mxGeometry relative="1" as="geometry" />
        </mxCell>
        <mxCell id="4Af5Qpp93MwCPUMn6GHV-103" value="User enters In information and press Add button" style="rounded=1;whiteSpace=wrap;html=1;" parent="1" vertex="1">
          <mxGeometry x="300" y="1096" width="120" height="60" as="geometry" />
        </mxCell>
        <mxCell id="4Af5Qpp93MwCPUMn6GHV-109" style="edgeStyle=orthogonalEdgeStyle;rounded=0;orthogonalLoop=1;jettySize=auto;html=1;exitX=0;exitY=0.5;exitDx=0;exitDy=0;entryX=0.5;entryY=1;entryDx=0;entryDy=0;" parent="1" source="4Af5Qpp93MwCPUMn6GHV-105" target="4Af5Qpp93MwCPUMn6GHV-107" edge="1">
          <mxGeometry relative="1" as="geometry" />
        </mxCell>
        <mxCell id="4Af5Qpp93MwCPUMn6GHV-114" style="edgeStyle=orthogonalEdgeStyle;rounded=0;orthogonalLoop=1;jettySize=auto;html=1;exitX=0.5;exitY=1;exitDx=0;exitDy=0;" parent="1" source="4Af5Qpp93MwCPUMn6GHV-105" target="4Af5Qpp93MwCPUMn6GHV-113" edge="1">
          <mxGeometry relative="1" as="geometry" />
        </mxCell>
        <mxCell id="4Af5Qpp93MwCPUMn6GHV-105" value="All boxes contained information" style="rhombus;whiteSpace=wrap;html=1;" parent="1" vertex="1">
          <mxGeometry x="295" y="1191" width="130" height="110" as="geometry" />
        </mxCell>
        <mxCell id="4Af5Qpp93MwCPUMn6GHV-107" value="Display error to user and close add page&amp;nbsp;" style="rounded=1;whiteSpace=wrap;html=1;" parent="1" vertex="1">
          <mxGeometry x="140" y="1131" width="120" height="60" as="geometry" />
        </mxCell>
        <mxCell id="4Af5Qpp93MwCPUMn6GHV-110" value="No" style="text;html=1;align=center;verticalAlign=middle;resizable=0;points=[];autosize=1;" parent="1" vertex="1">
          <mxGeometry x="200" y="1226" width="30" height="20" as="geometry" />
        </mxCell>
        <mxCell id="4Af5Qpp93MwCPUMn6GHV-117" style="edgeStyle=orthogonalEdgeStyle;rounded=0;orthogonalLoop=1;jettySize=auto;html=1;exitX=0.5;exitY=1;exitDx=0;exitDy=0;" parent="1" source="4Af5Qpp93MwCPUMn6GHV-113" target="4Af5Qpp93MwCPUMn6GHV-115" edge="1">
          <mxGeometry relative="1" as="geometry" />
        </mxCell>
        <mxCell id="4Af5Qpp93MwCPUMn6GHV-113" value="Users details are enter into the database" style="rounded=1;whiteSpace=wrap;html=1;" parent="1" vertex="1">
          <mxGeometry x="300" y="1340" width="120" height="60" as="geometry" />
        </mxCell>
        <mxCell id="4Af5Qpp93MwCPUMn6GHV-115" value="Add screen page closes" style="rounded=1;whiteSpace=wrap;html=1;" parent="1" vertex="1">
          <mxGeometry x="300" y="1430" width="120" height="60" as="geometry" />
        </mxCell>
        <mxCell id="4Af5Qpp93MwCPUMn6GHV-126" style="edgeStyle=orthogonalEdgeStyle;rounded=0;orthogonalLoop=1;jettySize=auto;html=1;exitX=0.5;exitY=1;exitDx=0;exitDy=0;entryX=0.5;entryY=0;entryDx=0;entryDy=0;" parent="1" source="4Af5Qpp93MwCPUMn6GHV-118" target="4Af5Qpp93MwCPUMn6GHV-123" edge="1">
          <mxGeometry relative="1" as="geometry" />
        </mxCell>
        <mxCell id="4Af5Qpp93MwCPUMn6GHV-118" value="Delete button is pressed" style="rounded=1;whiteSpace=wrap;html=1;" parent="1" vertex="1">
          <mxGeometry x="530" y="960" width="120" height="60" as="geometry" />
        </mxCell>
        <mxCell id="4Af5Qpp93MwCPUMn6GHV-125" style="edgeStyle=orthogonalEdgeStyle;rounded=0;orthogonalLoop=1;jettySize=auto;html=1;exitX=0.5;exitY=1;exitDx=0;exitDy=0;entryX=0.5;entryY=0;entryDx=0;entryDy=0;" parent="1" source="4Af5Qpp93MwCPUMn6GHV-123" target="4Af5Qpp93MwCPUMn6GHV-124" edge="1">
          <mxGeometry relative="1" as="geometry" />
        </mxCell>
        <mxCell id="4Af5Qpp93MwCPUMn6GHV-131" style="edgeStyle=orthogonalEdgeStyle;rounded=0;orthogonalLoop=1;jettySize=auto;html=1;exitX=1;exitY=0.5;exitDx=0;exitDy=0;entryX=0;entryY=0.5;entryDx=0;entryDy=0;" parent="1" source="4Af5Qpp93MwCPUMn6GHV-123" target="4Af5Qpp93MwCPUMn6GHV-128" edge="1">
          <mxGeometry relative="1" as="geometry" />
        </mxCell>
        <mxCell id="4Af5Qpp93MwCPUMn6GHV-123" value="Is a user selected" style="rhombus;whiteSpace=wrap;html=1;" parent="1" vertex="1">
          <mxGeometry x="525" y="1059" width="130" height="110" as="geometry" />
        </mxCell>
        <mxCell id="4Af5Qpp93MwCPUMn6GHV-124" value="Display error mesage" style="rounded=1;whiteSpace=wrap;html=1;" parent="1" vertex="1">
          <mxGeometry x="530" y="1241" width="120" height="60" as="geometry" />
        </mxCell>
        <mxCell id="4Af5Qpp93MwCPUMn6GHV-127" value="No" style="text;html=1;align=center;verticalAlign=middle;resizable=0;points=[];autosize=1;" parent="1" vertex="1">
          <mxGeometry x="584" y="1171" width="30" height="20" as="geometry" />
        </mxCell>
        <mxCell id="4Af5Qpp93MwCPUMn6GHV-133" style="edgeStyle=orthogonalEdgeStyle;rounded=0;orthogonalLoop=1;jettySize=auto;html=1;exitX=0.5;exitY=0;exitDx=0;exitDy=0;entryX=0.5;entryY=1;entryDx=0;entryDy=0;" parent="1" source="4Af5Qpp93MwCPUMn6GHV-128" target="4Af5Qpp93MwCPUMn6GHV-132" edge="1">
          <mxGeometry relative="1" as="geometry" />
        </mxCell>
        <mxCell id="4Af5Qpp93MwCPUMn6GHV-128" value="Message box is displayed asking if they want to delete it" style="rounded=1;whiteSpace=wrap;html=1;" parent="1" vertex="1">
          <mxGeometry x="680" y="1084" width="120" height="60" as="geometry" />
        </mxCell>
        <mxCell id="4Af5Qpp93MwCPUMn6GHV-132" value="Selected details are removed from both tree view and sql database&amp;nbsp;" style="rounded=1;whiteSpace=wrap;html=1;" parent="1" vertex="1">
          <mxGeometry x="680" y="960" width="120" height="60" as="geometry" />
        </mxCell>
        <mxCell id="4Af5Qpp93MwCPUMn6GHV-138" style="edgeStyle=orthogonalEdgeStyle;rounded=0;orthogonalLoop=1;jettySize=auto;html=1;exitX=1;exitY=0.5;exitDx=0;exitDy=0;" parent="1" source="4Af5Qpp93MwCPUMn6GHV-135" edge="1">
          <mxGeometry relative="1" as="geometry">
            <mxPoint x="-50" y="129.73913043478296" as="targetPoint" />
          </mxGeometry>
        </mxCell>
        <mxCell id="4Af5Qpp93MwCPUMn6GHV-135" value="User Logs out of program" style="rounded=1;whiteSpace=wrap;html=1;" parent="1" vertex="1">
          <mxGeometry x="-215" y="100" width="120" height="60" as="geometry" />
        </mxCell>
        <mxCell id="4Af5Qpp93MwCPUMn6GHV-137" value="Menu is updated removing option for viewing the pim system" style="rounded=1;whiteSpace=wrap;html=1;" parent="1" vertex="1">
          <mxGeometry x="-50" y="100" width="120" height="60" as="geometry" />
        </mxCell>
      </root>
    </mxGraphModel>
  </diagram>
</mxfile>
